#define _width 20
#define _height 20
static char _bits[] = {
 0x00,0x00,0x00,0x20,0x49,0x00,0x20,0x49,0x00,0x20,0x49,0x00,0xf0,0xff,0x00,
 0xfe,0xff,0x07,0xf0,0xff,0x00,0x70,0xe0,0x00,0x7e,0xe0,0x07,0x70,0xe0,0x00,
 0x70,0xe0,0x00,0x7e,0xe0,0x07,0x70,0xe0,0x00,0xf0,0xff,0x00,0xfe,0xff,0x07,
 0xf0,0xff,0x00,0x20,0x49,0x00,0x20,0x49,0x00,0x20,0x49,0x00,0x00,0x00,0x00 };
