#define _width 20
#define _height 20
static char _bits[] = {
 0x00,0x00,0x00,0x00,0x00,0x00,0x00,0x00,0x00,0x00,0x00,0x00,0xfc,0xff,0x01,
 0xfc,0xf9,0x03,0x3c,0xf9,0x07,0x7c,0xea,0x07,0x8c,0xe6,0x07,0xcc,0xf3,0x07,
 0x3c,0xcf,0x07,0x9c,0xc5,0x07,0x5c,0xf9,0x07,0x7c,0xf2,0x07,0x7c,0xfe,0x07,
 0xfc,0xff,0x07,0x80,0x7f,0x04,0x00,0x00,0x04,0x00,0x00,0x00,0x00,0x00,0x00 };
