#define _width 20
#define _height 20
static char _bits[] = {
 0x00,0x00,0x00,0x00,0x00,0x00,0x00,0x00,0x00,0x00,0x00,0x00,0xc6,0x31,0x00,
 0xfe,0x3f,0x00,0xfe,0x3f,0x00,0xfe,0x3f,0x00,0xfe,0x3f,0x00,0xfc,0x1d,0x00,
 0x00,0x00,0x00,0xc0,0x38,0x06,0xc0,0xff,0x07,0xc0,0xff,0x07,0xc0,0xff,0x07,
 0xc0,0xff,0x07,0x80,0xbf,0x03,0x00,0x00,0x00,0x00,0x00,0x00,0x00,0x00,0x00 };
