#define _width 20
#define _height 20
static char _bits[] = {
 0x00,0x08,0x00,0x00,0x0c,0x00,0x00,0x0e,0x00,0x00,0x8f,0x00,0x80,0x0f,0x01,
 0xc0,0x4f,0x02,0xe0,0x8f,0x04,0xfc,0x2f,0x05,0xfc,0x4f,0x05,0xfc,0x4f,0x05,
 0xfc,0x4f,0x05,0xfc,0x4f,0x05,0xfc,0x2f,0x05,0xe0,0x8f,0x04,0xc0,0x4f,0x02,
 0x80,0x0f,0x01,0x00,0x8f,0x00,0x00,0x0e,0x00,0x00,0x0c,0x00,0x00,0x08,0x00 };
